<svg xmlns="http://www.w3.org/2000/svg" viewBox="0 0 140 70"><g><path fill="none" stroke="#272F66" stroke-width=".757" stroke-linecap="square" d="M40.127 12.865h-.372c-.205 0-.41-.027-.457-.06-.047-.032-.297-.468-.556-.968-.26-.5-.535-.946-.613-.99-.08-.046-.22-.106-.315-.134-.094-.028-.235-.025-.314.007-.077.033-.225.08-.327.104-.102.024-.32.024-.485 0-.165-.024-.37-.08-.456-.126s-.266-.055-.4-.022c-.132.033-.376.132-.54.222-.166.09-.352.25-.414.355s-.294.28-.513.384c-.22.106-.528.192-.684.192-.156 0-.42-.174-.583-.385-.165-.21-.42-.404-.57-.43-.15-.023-.31-.133-.356-.243s-.142-.226-.213-.26c-.07-.032-.192-.205-.27-.384-.08-.18-.246-.375-.372-.436s-.645.042-1.156.228c-.51.186-.93.625-.93.977v1.278s-1.67.64-3.71.64h-3.71M66.347 9.833l-.684.07c-.376.04-.992.2-1.37.356-.375.155-.807.41-.957.567s-.397.348-.547.426c-.152.078-.46.174-.685.213-.226.04-.657.07-.958.07-.3 0-.794.035-1.095.076-.3.04-.732.33-.958.643-.226.312-1.327.568-2.447.568H54.61M66.347 9.833l.928-.427c.51-.235 1.345-.714 1.856-1.066.51-.35.93-.35.93 0v1.278s.417.926.927 1.278l1.856 1.278c.51.352 1.763.64 2.784.64 1.02 0 2.273-.29 2.784-.64.51-.352 1.347-.352 1.857 0s1.763.64 2.784.64h3.713M128.504 12.822h-4.65c-2.363 0-4.333-.076-4.38-.17-.047-.093-.13-.236-.185-.318-.056-.08-.312-.258-.57-.392-.26-.134-.593-.28-.742-.325-.15-.045-.49.005-.756.11-.267.105-.62-.038-.784-.32-.165-.28-.428-.55-.584-.598-.157-.05-.394-.37-.527-.71-.133-.343-.37-.818-.527-1.058s-.356-.49-.442-.555c-.086-.065-.24-.175-.342-.244-.102-.07-.204-.192-.228-.273-.024-.08-.107-.198-.185-.26-.078-.06-.284-.133-.456-.162-.172-.028-.397.008-.5.08-.1.074-.255.26-.34.415-.087.154-.414.49-.728.747-.315.256-.63.516-.7.577-.07.06-.25.134-.398.163-.15.028-.348.198-.442.377s-.26.535-.37.79-.277.523-.37.592c-.095.068-.34.135-.543.147-.204.012-.46.072-.57.133s-.212.2-.228.31-.215.376-.443.592c-.227.216-1.036.392-1.796.392s-1.42-.027-1.467-.06c-.047-.032-.297-.468-.556-.968-.26-.5-.535-.946-.613-.99-.078-.046-.22-.106-.314-.134-.094-.028-.235-.025-.314.007-.078.032-.226.078-.328.103-.102.024-.32.024-.485 0-.165-.024-.37-.08-.456-.126s-.266-.055-.4-.022c-.132.033-.376.132-.54.222s-.352.25-.414.355-.294.28-.513.384c-.22.106-.528.192-.684.192s-.42-.173-.584-.384c-.165-.21-.42-.404-.57-.43-.15-.023-.31-.133-.356-.243s-.143-.225-.214-.258c-.07-.033-.192-.206-.27-.385-.08-.18-.246-.375-.372-.436-.125-.06-.645.042-1.156.228-.51.186-.928.625-.928.977v1.278s-1.67.64-3.71.64h-3.712M11.36 10.972l.087-.2s.143-.226.214-.26c.072-.032.193-.205.272-.384.078-.18.245-.375.37-.436s.646.04 1.157.227c.51.185.927.624.927.976v1.278s1.67.64 3.71.64h3.712"/><path fill="none" stroke="#698EFF" stroke-width=".757" stroke-linecap="square" d="M54.608 12.822l-.085-.17c-.047-.093-.13-.236-.185-.318-.055-.08-.31-.258-.57-.392-.26-.134-.592-.28-.742-.325-.15-.045-.49.005-.756.11-.267.105-.62-.038-.784-.32-.165-.28-.428-.55-.584-.598-.157-.05-.394-.37-.527-.71-.133-.343-.37-.818-.527-1.058s-.356-.49-.442-.555c-.086-.065-.24-.175-.342-.244-.102-.07-.204-.192-.228-.273-.023-.08-.107-.198-.185-.26-.077-.06-.283-.133-.455-.162-.173-.028-.397.008-.5.08-.1.074-.255.26-.34.415-.087.154-.414.49-.728.747-.314.256-.628.516-.7.577-.07.06-.25.134-.398.163s-.35.198-.443.377-.26.535-.37.79-.278.523-.372.592c-.094.068-.338.135-.542.147s-.46.072-.57.133c-.11.06-.212.2-.228.31-.016.11-.214.376-.442.592-.227.216-.868.392-1.424.392h-1.012"/><path fill="none" stroke="#272F66" stroke-width=".757" stroke-linecap="square" d="M26.682 50.92h-.442s-.442.618-.442 1.373-.264 1.373-.587 1.373c-.322 0-.586-.725-.586-1.61V48.08c0-.885-.38-1.61-.84-1.61s-.842-.66-.842-1.466c0-.807-.346-1.467-.77-1.467-.422 0-.768.277-.768.615 0 .338-.297.615-.66.615s-.658-.725-.658-1.61v-11.36c0-.886-.37-1.61-.824-1.61s-.824.725-.824 1.61v3.407c0 .886-.272 1.61-.604 1.61-.332 0-.604-.725-.604-1.61v-8.52c0-.885-.272-1.61-.604-1.61-.332 0-.604.32-.604.71 0 .392-.297.71-.66.71-.362 0-.658-.724-.658-1.61v-3.69c0-.886-.272-1.61-.604-1.61-.332 0-.604.725-.604 1.61v1.797c0 .887-.247 1.61-.55 1.61-.302 0-.55.726-.55 1.61v31.802c0 .886-.725 1.61-1.61 1.61H8.504"/><path fill="none" stroke="#698EFF" stroke-width=".757" stroke-linecap="square" d="M95.117 39.235v18.777c0 .886-.725 1.61-1.61 1.61h-1.733c-.886 0-1.61-.105-1.61-.233s-.57-.234-1.264-.234-1.264-.192-1.264-.426-.297-.426-.66-.426c-.362 0-.658-.426-.658-.947s-.346-.947-.77-.947-.768.49-.768 1.09c0 .598-.42 1.088-.934 1.088s-.934-.192-.934-.426-.297-.426-.66-.426c-.362 0-.658.424-.658.943s-.692.942-1.538.942-1.538-.403-1.538-.895-.32-.895-.714-.895-.714.403-.714.895-.725.895-1.61.895h-.63c-.886 0-1.61-.725-1.61-1.61v-.18c0-.886-.495-1.61-1.1-1.61s-1.098.426-1.098.947c0 .52-.297.946-.66.946s-.658-.725-.658-1.61V54.14c0-.886-.32-1.61-.714-1.61-.393 0-.714.66-.714 1.467s-.346 1.467-.77 1.467-.768-.725-.768-1.61V50.73c0-.885-.42-1.61-.934-1.61s-.934.597-.934 1.326c0 .73-.297 1.325-.66 1.325-.362 0-.658-.574-.658-1.277s-.346-1.278-.77-1.278-.768-.725-.768-1.61v-2.08c0-.887-.32-1.61-.714-1.61s-.714.724-.714 1.61v.85c0 .886-.247 1.61-.55 1.61-.3 0-.548-.725-.548-1.61v-10.54c0-.885-.37-1.61-.824-1.61-.453 0-.824-.724-.824-1.61v-.187c0-.886-.346-1.61-.77-1.61-.422 0-.768.725-.768 1.61v15.12c0 .885-.247 1.61-.55 1.61s-.548-.726-.548-1.61V37.16c0-.885-.32-1.61-.714-1.61-.393 0-.714.726-.714 1.61v20.852c0 .886-.072 1.61-.16 1.61h-6.003c-.886 0-1.61-.275-1.61-.61s-.278-.612-.61-.612-.605.275-.605.61-.618.612-1.374.612c-.755 0-1.374-.17-1.374-.375 0-.206-.272-.375-.604-.375-.332 0-.604.17-.604.375 0 .206-.494.375-1.1.375s-1.098-.275-1.098-.61-.272-.612-.604-.612-.604.275-.604.61-.37.612-.824.612c-.453 0-.824-.467-.824-1.037 0-.57-.272-1.037-.604-1.037-.332 0-.604-.725-.604-1.61V54.33c0-.886-.272-1.61-.604-1.61-.332 0-.604.34-.604.757s-.247.757-.55.757c-.3 0-.548-.725-.548-1.61V50.92c0-.885-.247-1.61-.55-1.61s-.55.336-.55.745c0 .41-.297.744-.66.744-.362 0-.658-.57-.658-1.266 0-.696-.272-1.265-.604-1.265s-.604.724-.604 1.61v2.364c0 .886-.297 1.61-.66 1.61s-.658-.66-.658-1.467-.147-1.467-.327-1.467h-.327"/><path fill="none" stroke="#272F66" stroke-width=".757" stroke-linecap="square" d="M126.47 59.622h-2.05c-.887 0-1.61-.725-1.61-1.61v-2.495c0-.886-.322-1.61-.715-1.61-.393 0-.714.372-.714.827s-.37.827-.823.827c-.453 0-.824-.724-.824-1.61v-.282c0-.886-.297-1.61-.66-1.61s-.658.426-.658.947c0 .52-.297.947-.66.947s-.658-.362-.658-.805-.32-.805-.714-.805-.714.213-.714.473-.347.473-.77.473c-.423 0-.77-.596-.77-1.325s-.32-1.325-.713-1.325-.714.426-.714.947c0 .52-.346.947-.77.947s-.768-.725-.768-1.61v-.283c0-.887-.272-1.61-.604-1.61-.33 0-.603.553-.603 1.23s-.346 1.23-.77 1.23-.768-.724-.768-1.61V42.5c0-.886-.298-1.61-.66-1.61-.363 0-.66.725-.66 1.61v.756c0 .886-.37 1.61-.823 1.61-.453 0-.824-.64-.824-1.42 0-.78-.396-1.42-.88-1.42s-.878.596-.878 1.325-.346 1.324-.77 1.324-.768-.725-.768-1.61V36.06c0-.886-.32-1.61-.714-1.61-.393 0-.714.725-.714 1.61v2.27c0 .887-.273 1.61-.605 1.61-.332 0-.604-.532-.604-1.182s-.345-1.183-.768-1.183-.77.64-.77 1.42c0 .78-.296 1.42-.658 1.42s-.66-.725-.66-1.61v-7.79c0-.885-.345-1.61-.768-1.61-.423 0-.77.726-.77 1.61v8.224"/><circle fill="none" stroke="#00ED95" stroke-width=".757" cx="75.77" cy="59.496" r="2.684"/><circle fill="#00ED95" cx="75.77" cy="59.496" r="1.073"/><circle fill="#FFF" cx="95.092" cy="39.702" r="1.073"/><circle fill="#FF3A5D" cx="126.47" cy="59.622" r="1.073"/><circle fill="none" stroke="#FFF" stroke-width=".757" cx="95.092" cy="39.702" r="2.684"/><circle fill="none" stroke="#FF3A5D" stroke-width=".617" stroke-linecap="square" cx="126.47" cy="59.622" r="2.684"/><circle fill="none" stroke="#698EFF" stroke-width=".757" cx="26.682" cy="50.92" r="2.684"/><circle fill="#698EFF" cx="26.682" cy="50.92" r="1.073"/></g></svg>