<svg xmlns="http://www.w3.org/2000/svg" viewBox="0 0 140 70"><g fill="none"><g stroke="#00475B" stroke-width=".406" stroke-dasharray="0.4057,1.2171"><path d="M24 7.083v57.5M12.5 7.083v57.5M35.5 7.083v57.5M47 7.083v57.5M58.5 7.083v57.5M70 7.083v57.5M81.5 7.083v57.5M93 7.083v57.5M104.5 7.083v57.5M116 7.083v57.5M127.5 7.083v57.5M12.5 18.583h115M12.5 30.083h115M12.5 41.583h115M12.5 53.083h115M12.5 64.583h115M12.5 7.083h115"/></g><path stroke="#FFF" stroke-width=".609" d="M12.5 64.583h23v-40.25h3.406v40.25H56.2v-23h3.45v23H81.5M81.5 64.583h5.75v-40.25h3.406v40.25h17.294v-23h3.45v23h16.1"/><path stroke="#FFF" stroke-width=".609" stroke-dasharray="1.2171,0.8114" d="M35.404 49.633H56.2"/><path stroke="#00475B" stroke-width=".609" stroke-dasharray="1.2171,0.8114" d="M35.5 33.533h51.75"/><g stroke="#00D7FF" stroke-width=".609"><path d="M51.83 11.453v-2.99c0-.762-.618-1.38-1.38-1.38-.762 0-1.38.618-1.38 1.38v2.99M59.19 11.453v-.92c0-.762-.618-1.38-1.38-1.38-.762 0-1.38.617-1.38 1.38v.92M51.83 11.453c0 .763.618 1.38 1.38 1.38h1.84c.762 0 1.38-.618 1.38-1.38M42.4 12.833h5.29c.762 0 1.38-.618 1.38-1.38M59.19 11.453c0 .763.618 1.38 1.38 1.38H67.93c.762 0 1.38-.618 1.38-1.38M72.07 11.453v-2.99c0-.762-.618-1.38-1.38-1.38-.762 0-1.38.618-1.38 1.38v2.99M79.43 11.453v-.92c0-.762-.618-1.38-1.38-1.38-.762 0-1.38.617-1.38 1.38v.92M72.07 11.453c0 .763.618 1.38 1.38 1.38h1.84c.762 0 1.38-.618 1.38-1.38M79.43 11.453c0 .763.618 1.38 1.38 1.38h7.59"/></g><g stroke="#4D9EFF" stroke-width=".609"><path d="M12.5 12.833v-5.75h5.75M12.5 9.958h4.6"/></g><circle stroke="#00475B" stroke-width=".609" cx="36.026" cy="9.91" r="2.826"/><circle stroke="#00475B" stroke-width=".609" cx="23.376" cy="9.91" r="2.826"/><path stroke="#00475B" stroke-width=".609" d="M63.444 24.333v5.75h5.175"/><path stroke="#00475B" stroke-width=".609" stroke-dasharray="1.2171,0.8114" d="M34.35 24.333H12.5"/><path stroke="#00A7A7" stroke-width=".609" stroke-dasharray="1.2171,0.8114" d="M24 48.483v16.1M24 24.333v13.8"/><g stroke="#00D7FF" stroke-width=".609"><path d="M43.55 40.433h6.9M47 40.433v5.75"/></g><path stroke="#00D7FF" stroke-width=".609" d="M21.126 40.395v5.75M26.876 40.395v5.75M21.126 43.27h5.75"/><path stroke="#FF90A7" stroke-width=".609" d="M104.5 7.138h5.75v.976H116v1.172h5.75V7.138h5.75"/><path stroke="#FF3A5D" stroke-width=".609" stroke-linecap="square" stroke-linejoin="bevel" d="M93 12.833v-5.75h1.15l2.3 5.75 2.3-5.75h1.15v5.75"/><path stroke="#5F4270" stroke-width=".609" d="M111.4 12.735h16.1"/><path stroke="#FF3A5D" stroke-width=".609" d="M104.5 12.735h16.1"/><circle stroke="#4D9EFF" stroke-width=".609" cx="27.45" cy="9.91" r="2.826"/><circle stroke="#4D9EFF" stroke-width=".609" cx="31.524" cy="9.91" r="2.826"/></g></svg>